<?xml version="1.0" standalone="no"?>
<!DOCTYPE svg PUBLIC "-//W3C//DTD SVG 1.1//EN" "http://www.w3.org/Graphics/SVG/1.1/DTD/svg11.dtd">
<svg width="78mm" height="82mm" viewBox="-39 -77 78 82" xmlns="http://www.w3.org/2000/svg" version="1.1">
<title>OpenSCAD Model</title>
<path d="
M 0.444159,-4.06371 L 9.525,-4.06371 L 9.525,-1.52394 L 17.7799,-1.52394 L 17.7799,-4.06371 L 26.3523,-4.06371
 L 26.3523,4.44469 L 38.1,4.44469 L 23.9233,-19.05 L 30.2733,-19.05 L 16.0971,-38.1 L 22.4471,-38.1
 L 8.27081,-57.15 L 14.6208,-57.15 L 0.444159,-76.2 L -0.444159,-76.2 L -14.6208,-57.15 L -8.27081,-57.15
 L -22.4471,-38.1 L -16.0971,-38.1 L -30.2733,-19.05 L -23.9233,-19.05 L -38.1,4.44469 L -26.3523,4.44469
 L -26.3523,-4.06371 L -17.7799,-4.06371 L -17.7799,-1.52394 L -9.525,-1.52394 L -9.525,-4.06371 L -0.444159,-4.06371
 L -0.444159,-38.1 L 0.444159,-38.1 z
" stroke="black" fill="lightgray" stroke-width="0.5"/>
</svg>
