<?xml version="1.0" encoding="UTF-8" standalone="no"?>
<svg
   xmlns:dc="http://purl.org/dc/elements/1.1/"
   xmlns:cc="http://creativecommons.org/ns#"
   xmlns:rdf="http://www.w3.org/1999/02/22-rdf-syntax-ns#"
   xmlns:svg="http://www.w3.org/2000/svg"
   xmlns="http://www.w3.org/2000/svg"
   xmlns:sodipodi="http://sodipodi.sourceforge.net/DTD/sodipodi-0.dtd"
   xmlns:inkscape="http://www.inkscape.org/namespaces/inkscape"
   width="78mm"
   height="82mm"
   viewBox="-39 -77 78 82"
   version="1.1"
   id="svg6"
   sodipodi:docname="christmasTreeOrnamentDecorated.svg"
   inkscape:version="0.92.3 (2405546, 2018-03-11)">
  <metadata
     id="metadata12">
    <rdf:RDF>
      <cc:Work
         rdf:about="">
        <dc:format>image/svg+xml</dc:format>
        <dc:type
           rdf:resource="http://purl.org/dc/dcmitype/StillImage" />
        <dc:title>OpenSCAD Model</dc:title>
      </cc:Work>
    </rdf:RDF>
  </metadata>
  <defs
     id="defs10" />
  <sodipodi:namedview
     pagecolor="#ffffff"
     bordercolor="#666666"
     borderopacity="1"
     objecttolerance="10"
     gridtolerance="10"
     guidetolerance="10"
     inkscape:pageopacity="0"
     inkscape:pageshadow="2"
     inkscape:window-width="1869"
     inkscape:window-height="1025"
     id="namedview8"
     showgrid="false"
     inkscape:zoom="2.1538013"
     inkscape:cx="15.498843"
     inkscape:cy="132.49647"
     inkscape:window-x="51"
     inkscape:window-y="27"
     inkscape:window-maximized="1"
     inkscape:current-layer="svg6" />
  <title
     id="title2">OpenSCAD Model</title>
  <path
     style="fill:#000000;stroke-width:0.13229166;stroke-miterlimit:4;stroke-dasharray:none;stroke:#000000;stroke-opacity:1"
     d="m 4.6514593,-57.857286 c -1.7960145,-0.32537 -2.6946255,-2.379986 -1.7083285,-3.905984 0.252649,-0.390899 0.705962,-0.782163 1.1080425,-0.956374 0.09007,-0.03903 0.163763,-0.08587 0.163763,-0.104081 0,-0.01821 0.02927,-0.0609 0.06506,-0.09484 0.06166,-0.05848 0.06508,-0.07702 0.06551,-0.354995 5.05e-4,-0.326442 0.01567,-0.355686 0.202617,-0.390757 0.102263,-0.01918 0.1022,-0.01889 0.0271,-0.124178 -0.16014,-0.224509 -0.04962,-0.61672 0.214252,-0.760338 0.47509,-0.258577 1.0143051,0.274118 0.748365,0.739316 -0.07987,0.139723 -0.08186,0.125928 0.02086,0.1452 0.1868051,0.03504 0.2020551,0.06438 0.2031491,0.390757 0.0012,0.354345 0.04777,0.430209 0.339645,0.553135 1.453037,0.611969 1.970845,2.458395 1.066085,3.801502 -0.520609,0.772839 -1.5988901,1.227801 -2.5161231,1.061632 z m 0.73876,-0.02771 c 2.2404631,-0.28093 2.9888441,-3.176286 1.1698171,-4.525819 -0.292078,-0.216694 -0.668156,-0.38448 -0.668156,-0.298097 0,0.176919 -0.2626171,0.30276 -0.4546021,0.217836 l -0.121847,-0.0539 -0.119203,0.05273 c -0.131607,0.05822 -0.216436,0.05115 -0.337241,-0.0281 -0.07465,-0.04896 -0.07634,-0.04888 -0.152361,0.0073 -0.155366,0.114844 -0.408298,0.04567 -0.482515,-0.131947 -0.04398,-0.105249 -0.02379,-0.105923 -0.2522,0.0084 -1.5393155,0.770562 -1.8749735,2.81668 -0.6616425,4.033271 0.5538885,0.555377 1.3064935,0.815286 2.0799505,0.718303 z m -0.67945,-4.678356 0.08062,-0.06783 0.08062,0.06783 c 0.124551,0.104807 0.323757,0.08208 0.425771,-0.04855 0.0148,-0.01895 0.02591,-0.01718 0.03513,0.0056 0.0074,0.01832 0.0472,0.05074 0.08841,0.07206 0.2888401,0.149366 0.5694681,-0.154187 0.3521981,-0.380969 -0.06135,-0.06404 -0.06504,-0.08455 -0.06504,-0.361878 v -0.293989 l -0.07206,-0.02785 c -0.03964,-0.01532 -0.110378,-0.03426 -0.157214,-0.04208 -0.102147,-0.01707 -0.10241,-0.0186 -0.02034,-0.116142 0.224948,-0.267337 0.07806,-0.710862 -0.267167,-0.806735 -0.474038,-0.131641 -0.853907,0.438104 -0.540464,0.81061 0.03744,0.04449 0.06366,0.08385 0.05827,0.08745 -0.0054,0.0036 -0.0683,0.02141 -0.139796,0.03957 -0.196477,0.04991 -0.197542,0.05194 -0.197542,0.376872 0,0.268741 -0.0043,0.292934 -0.06551,0.365633 -0.202377,0.240511 0.15878,0.526863 0.404124,0.320419 z m 0.165937,-1.179077 c -0.176706,-0.0902 -0.248303,-0.354372 -0.140401,-0.518037 0.217086,-0.329273 0.710256,-0.162895 0.676051,0.228076 -0.0223,0.254981 -0.304702,0.407848 -0.53565,0.289961 z m 0.360117,-0.06035 c 0.326251,-0.226768 0.04252,-0.719482 -0.321572,-0.558428 -0.261007,0.115458 -0.265783,0.466963 -0.008,0.584861 0.119058,0.05444 0.225441,0.0459 0.329516,-0.02643 z"
     id="path1006"
     inkscape:connector-curvature="0" />
  <path
     style="fill:#000000;stroke-width:0.13229166;stroke:#000000;stroke-opacity:1;stroke-miterlimit:4;stroke-dasharray:none"
     d="m 17.74285,-10.333511 c -0.313748,-0.230627 -0.303471,-0.527627 0.02838,-0.820047 1.478512,-1.302848 3.036466,-3.064966 3.570134,-4.037986 0.458576,-0.836112 0.412948,-1.165802 -0.195041,-1.409154 -0.479034,-0.191736 -1.117977,0.103684 -1.550214,0.716752 -0.225418,0.319723 -0.789213,0.124587 -0.849232,-0.293928 -0.05103,-0.355854 0.846364,-1.157599 1.518771,-1.356892 0.87469,-0.259247 2.008841,0.229095 2.267722,0.976432 0.396941,1.145892 -0.914299,3.149566 -3.814897,5.829441 -0.607274,0.561064 -0.699427,0.598411 -0.975622,0.395387 z m 0.3637,-0.02877 c 0.137694,-0.07252 0.08201,-0.359492 -0.09,-0.464149 -0.297977,-0.181268 -0.47706,-0.04347 -0.323184,0.248696 0.0896,0.170129 0.295445,0.277465 0.413183,0.215456 z m 0.80255,-1.079572 0.310305,0.07465 0.377582,-0.378125 0.37758,-0.378127 -0.101445,-0.0314 c -0.0558,-0.01725 -0.200359,-0.04389 -0.321271,-0.05908 -0.439511,-0.05526 -0.419066,-0.06372 -0.842241,0.34855 l -0.385131,0.375206 0.137141,-0.01308 c 0.07542,-0.0072 0.276784,0.02048 0.447458,0.06152 z m 1.522859,-1.616232 0.321884,0.07909 0.325123,-0.396234 c 0.178819,-0.217928 0.320286,-0.405422 0.31437,-0.416653 -0.01897,-0.03601 -0.603886,-0.121572 -0.707596,-0.103509 -0.07206,0.01255 -0.184201,0.115161 -0.400864,0.366829 -0.165444,0.192174 -0.316919,0.36808 -0.336611,0.390901 -0.03007,0.03485 -0.02001,0.0382 0.06299,0.02102 0.05434,-0.0113 0.243661,0.01506 0.42069,0.05859 z m 1.366244,-1.679796 0.229422,0.04612 0.135215,-0.270733 c 0.139856,-0.280035 0.347309,-0.913656 0.326064,-0.995872 -0.04557,-0.176299 -0.791252,0.246523 -0.867921,0.492135 -0.02166,0.0695 -0.111668,0.247955 -0.199946,0.396587 -0.08828,0.148632 -0.162428,0.276442 -0.164776,0.28402 -0.0023,0.0076 0.06701,0.01106 0.154131,0.0077 0.08713,-0.0034 0.261642,0.01466 0.387817,0.04005 z m -2.422038,-1.126154 c 0.104343,-0.03583 0.09659,-0.127613 -0.02215,-0.262272 -0.117386,-0.133132 -0.283647,-0.18676 -0.415574,-0.13407 l -0.101656,0.04061 0.07575,0.143822 c 0.08455,0.160528 0.311358,0.26419 0.463635,0.211906 z m 0.390643,-0.408315 0.195017,-0.193948 -0.18538,-0.105755 c -0.101957,-0.05817 -0.234148,-0.150925 -0.293756,-0.20613 l -0.108382,-0.100363 -0.08335,0.07559 c -0.04584,0.04158 -0.140433,0.146751 -0.210208,0.233726 l -0.126856,0.158137 0.120356,0.0026 c 0.143836,0.0031 0.332193,0.113038 0.420848,0.245815 0.0339,0.05076 0.06503,0.0905 0.06916,0.0883 0.0042,-0.0021 0.09528,-0.09125 0.202543,-0.197927 z m 1.8181,-0.461815 c 0.05276,-0.0842 0.160341,-0.196813 0.239072,-0.250239 l 0.14315,-0.09713 -0.116856,-0.08718 c -0.297849,-0.222201 -1.256064,-0.405557 -1.411565,-0.270108 -0.08342,0.07266 0.400913,0.634342 0.568392,0.659174 0.06139,0.0091 0.17908,0.05039 0.261503,0.09183 0.08244,0.0414 0.165746,0.08235 0.185134,0.09101 0.01938,0.0087 0.07842,-0.05315 0.131165,-0.137359 z"
     id="path1002"
     inkscape:connector-curvature="0" />
  <path
     style="fill:#000000;fill-opacity:1;stroke:#000000;stroke-width:0.13229166;stroke-opacity:1;stroke-miterlimit:4;stroke-dasharray:none"
     d="m 9.6958414,-21.13642 c -0.05635,-0.177556 -0.707402,-0.688996 -1.199282,-0.942114 -1.745304,-0.89812 -1.678165,-2.924058 0.126066,-3.804051 0.575331,-0.280612 0.646834,-0.359437 0.698138,-0.769639 l 0.03229,-0.258174 0.111233,-0.0081 c 0.06118,-0.0045 0.111232,-0.01239 0.111232,-0.01762 0,-0.0052 -0.02378,-0.06497 -0.05284,-0.132776 -0.141864,-0.330958 -0.06105,-0.643402 0.167092,-0.645969 0.210031,-0.0024 0.3110956,0.383463 0.177519,0.677691 l -0.05033,0.110847 0.123425,0.008 0.1234236,0.008 0.02965,0.241925 c 0.04489,0.366211 0.12886,0.456038 0.671523,0.718314 1.293689,0.625256 1.82165,1.641085 1.400105,2.693885 -0.205057,0.512126 -0.555534,0.87052 -1.176966,1.203549 -0.728948,0.390649 -1.2013746,0.733436 -1.2013746,0.871703 0,0.06494 -0.07307,0.100795 -0.09091,0.0446 z m 0.196524,-0.251007 c 0.1510516,-0.165673 0.3808616,-0.320069 0.9109316,-0.612008 0.563298,-0.310238 0.685057,-0.395784 0.909172,-0.638771 0.209552,-0.227198 0.47703,-0.668979 0.47703,-0.787888 0,-0.0029 -0.04235,0.0347 -0.0941,0.08352 -0.768426,0.724718 -3.9452936,0.688035 -4.6660656,-0.05388 l -0.100437,-0.103383 0.06351,0.174966 c 0.184095,0.507175 0.675199,1.023141 1.178405,1.238061 0.350657,0.149767 1.1314,0.76865 1.138284,0.902299 8.44e-4,0.01658 0.01571,0.007 0.03301,-0.02122 0.0173,-0.02826 0.08492,-0.110017 0.150269,-0.181691 z m 0.2870616,-1.704463 c -0.01993,-0.02731 -0.12961,-0.162368 -0.2437456,-0.300131 l -0.207522,-0.250477 -0.258284,0.280328 c -0.308975,0.335345 -0.326801,0.315595 0.28709,0.318078 0.4443786,0.0018 0.4575566,3.07e-4 0.4224616,-0.0478 z m 0.868106,-0.05996 c 0.163374,-0.03 0.297043,-0.05872 0.297043,-0.06382 0,-0.01964 -0.481948,-0.460052 -0.501673,-0.458436 -0.0073,5.8e-4 -0.09942,0.138446 -0.204801,0.306335 l -0.191599,0.305254 0.151993,-0.0174 c 0.0836,-0.0096 0.285663,-0.04194 0.449037,-0.07194 z m -2.2015046,-0.233893 -0.199622,-0.317099 -0.08332,0.07004 c -0.04583,0.03852 -0.157592,0.138065 -0.248364,0.221201 l -0.165041,0.151157 0.165041,0.04649 c 0.09077,0.02557 0.289798,0.06761 0.44228,0.09343 0.152482,0.02582 0.279808,0.04805 0.282946,0.04941 0.0031,0.0014 -0.08413,-0.140228 -0.193918,-0.314632 z m -0.85483,0.05966 c -0.05614,-0.163075 -0.114686,-0.30239 -0.17038,-0.476614 -0.02379,-0.108332 -0.02863,-0.10742 -0.193035,0.0364 -0.159851,0.139834 -0.167327,0.171622 -0.05858,0.249059 0.164546,0.117168 0.422186,0.233875 0.421991,0.191158 z m 2.4868986,-0.178226 c 0.07845,-0.130699 0.165478,-0.272134 0.193402,-0.3143 l 0.05077,-0.07667 -0.157515,0.01696 c -0.08663,0.0093 -0.285181,0.01844 -0.441216,0.02025 l -0.2836976,0.0033 0.09887,0.122959 c 0.3187836,0.396444 0.3858526,0.477325 0.3910216,0.471543 0.0032,-0.0035 0.06992,-0.113349 0.148362,-0.244048 z m 1.354049,0.114391 c 0.28178,-0.142705 0.276954,-0.126747 0.08959,-0.296303 -0.188353,-0.17045 -0.175031,-0.175325 -0.28062,0.1027 -0.04412,0.116177 -0.08926,0.233802 -0.100307,0.26139 -0.02662,0.06647 0.07116,0.04372 0.291339,-0.06779 z m -0.329673,-0.411661 c 0.09863,-0.272592 0.116466,-0.255735 -0.199803,-0.188879 -0.143956,0.03043 -0.290717,0.06097 -0.326136,0.06787 -0.05931,0.01154 -0.04681,0.02893 0.158423,0.220169 0.258824,0.241182 0.242804,0.245504 0.367516,-0.09915 z m -2.1150926,0.227212 c 0.243765,-0.294679 0.244796,-0.285978 -0.03409,-0.28775 -0.117388,-7.38e-4 -0.296603,-0.01094 -0.398258,-0.02264 -0.101655,-0.01171 -0.187665,-0.01915 -0.191133,-0.01655 -0.0035,0.0026 0.06025,0.110825 0.141597,0.240476 0.08135,0.129652 0.165142,0.263202 0.186214,0.296778 0.05187,0.08264 0.05543,0.08011 0.295673,-0.210317 z m -0.824693,-0.330847 c -0.0025,-0.0027 -0.129165,-0.0299 -0.281402,-0.06051 -0.152237,-0.03062 -0.297625,-0.06192 -0.323085,-0.06957 -0.04705,-0.01413 -0.005,0.135445 0.126886,0.451011 l 0.04003,0.0958 0.22109,-0.205945 c 0.121599,-0.113269 0.219016,-0.208125 0.216482,-0.210791 z m -0.949392,-0.264679 c -0.08617,-0.04659 -0.180401,-0.105994 -0.209409,-0.132019 -0.05894,-0.05289 -0.05868,-0.04388 0.01039,0.355474 l 0.02856,0.16516 0.163561,-0.151958 0.163562,-0.151957 z m 4.5206346,0.106046 c 0.04172,-0.271611 0.04039,-0.290254 -0.01704,-0.23968 -0.02541,0.02238 -0.111556,0.07318 -0.191428,0.112884 -0.07987,0.03971 -0.14869,0.07523 -0.152928,0.07893 -0.0042,0.0037 0.06106,0.07281 0.145104,0.15358 0.173474,0.166703 0.174531,0.166186 0.216293,-0.105711 z m -1.769864,-0.03483 c 0.899239,-0.0614 1.531701,-0.219127 1.705138,-0.425245 l 0.06687,-0.07947 -0.05621,-0.110558 c -0.271488,-0.533938 -0.66148,-0.877038 -1.396216,-1.228341 -0.262803,-0.125655 -0.356564,-0.185659 -0.455676,-0.291617 -0.180422,-0.192887 -0.3159136,-0.247237 -0.4429196,-0.177669 l -0.09602,0.05259 -0.07366,-0.05366 -0.07366,-0.05366 -0.108509,0.05518 c -0.05968,0.03035 -0.119116,0.07301 -0.132081,0.09479 -0.08069,0.135578 -0.299127,0.298816 -0.579595,0.433132 -0.655424,0.313882 -1.170528,0.799067 -1.295979,1.220703 -0.07164,0.240772 0.728769,0.508195 1.661512,0.555124 0.174265,0.0088 0.321797,0.02031 0.327847,0.02566 0.02108,0.01861 0.572513,0.0087 0.9491706,-0.01697 z m -0.8951136,-2.374432 c 0.06387,-0.04908 0.06636,-0.04907 0.136096,5.8e-4 0.08648,0.06158 0.112345,0.06264 0.195672,0.008 0.05952,-0.039 0.07367,-0.03904 0.17013,-4.38e-4 l 0.1052106,0.04209 -0.01308,-0.111777 c -0.0072,-0.06148 -0.01785,-0.147422 -0.02367,-0.190988 -0.0058,-0.04357 -0.01156,-0.09406 -0.01275,-0.112217 -0.0016,-0.02443 -0.08366,-0.033 -0.3158086,-0.033 h -0.313635 l -0.02961,0.199109 c -0.04237,0.284883 -0.03349,0.302282 0.101454,0.198588 z m 0.291004,-0.63302 c 0.04953,-0.293626 -0.01285,-0.512397 -0.120592,-0.422976 -0.07452,0.06185 -0.01604,0.605493 0.06513,0.605493 0.01357,0 0.03852,-0.08213 0.05546,-0.182517 z"
     id="path1004-0"
     inkscape:connector-curvature="0"
     sodipodi:nodetypes="csscccscccccccsssscccsssccccccsccscscccscccccccccsccccccccscccccccccccccccccccccccsccccccccscsccccccccccccccccccsccccccccssccccccccsccsccccccsc" />
  <path
     style="fill:#000000;stroke-width:0.13229166;stroke:#000000;stroke-opacity:1;stroke-miterlimit:4;stroke-dasharray:none"
     d="m -6.3058939,-53.033729 c -0.387752,-0.03572 -0.532155,-0.295458 -0.398717,-0.717153 0.594522,-1.878818 1.0201823,-4.192061 0.9754232,-5.300919 -0.038463,-0.952836 -0.2476228,-1.211736 -0.8940082,-1.106573 -0.509284,0.08285 -0.904257,0.665539 -0.958288,1.413711 -0.02818,0.390182 -0.61183,0.51385 -0.87914,0.186286 -0.227287,-0.278526 0.127903,-1.428288 0.601132,-1.945883 0.61559,-0.673306 1.8391026,-0.840014 2.4463992,-0.333337 0.9311643,0.776894 0.841467,3.169802 -0.2609709,6.961878 -0.2308077,0.793915 -0.2904868,0.873448 -0.6318283,0.841998 z m 0.2967287,-0.212269 c 0.08055,-0.133157 -0.1151507,-0.350285 -0.3165337,-0.351197 -0.348778,-0.0016 -0.431109,0.208857 -0.148573,0.379769 0.164523,0.09952 0.396232,0.08529 0.4651067,-0.02857 z m 0.1306203,-1.338843 0.3043242,-0.09616 0.1284058,-0.518709 0.1284049,-0.518708 -0.1031189,0.02539 c -0.056711,0.014 -0.1942838,0.06576 -0.305703,0.115116 -0.405023,0.179388 -0.391876,0.161589 -0.541724,0.733069 l -0.13638,0.520103 0.110736,-0.08196 c 0.0609,-0.04508 0.2476776,-0.125235 0.4150561,-0.17813 z m 0.4708504,-2.170161 0.316565,-0.09825 0.074125,-0.50716 c 0.04077,-0.278939 0.06524,-0.512536 0.054379,-0.519106 -0.034823,-0.02106 -0.5800465,0.207376 -0.6595756,0.276346 -0.055267,0.04792 -0.098394,0.193677 -0.1541784,0.521041 -0.042598,0.249977 -0.08162,0.478811 -0.086717,0.508519 -0.00778,0.04536 0.00257,0.04304 0.064804,-0.01448 0.040725,-0.03771 0.2165061,-0.112789 0.3906151,-0.16683 z m 0.3038939,-2.143826 0.2203421,-0.0788 -0.023825,-0.301681 c -0.024646,-0.312044 -0.1737839,-0.961867 -0.2343973,-1.021339 -0.1299818,-0.127524 -0.5506765,0.619362 -0.4896566,0.869323 0.01725,0.07072 0.032255,0.270019 0.033294,0.442889 0.00104,0.17287 0.00346,0.320609 0.00536,0.328312 0.00189,0.0077 0.063096,-0.02511 0.1359959,-0.07295 0.072902,-0.04782 0.2317025,-0.122411 0.3528914,-0.16575 z m -2.6558333,0.284675 c 0.0709,-0.08452 0.01691,-0.159147 -0.154269,-0.213255 -0.169239,-0.05349 -0.339335,-0.01367 -0.425174,0.09952 l -0.06614,0.08723 0.139085,0.08413 c 0.155238,0.09391 0.403015,0.06571 0.506496,-0.05764 z m 0.124021,-0.551308 0.06702,-0.266752 -0.213366,0.005 c -0.117352,0.0028 -0.278443,-0.0085 -0.357987,-0.02505 l -0.144622,-0.03008 -0.03241,0.107752 c -0.01782,0.05927 -0.0446,0.198162 -0.05951,0.308665 l -0.0271,0.200911 0.104431,-0.05989 c 0.124803,-0.07157 0.342893,-0.07452 0.487335,-0.0065 0.05523,0.02599 0.102395,0.04398 0.104807,0.03996 0.0024,-0.004 0.03456,-0.127329 0.07141,-0.274044 z m 1.31929,-1.333504 c 0.0018,-0.09935 0.03583,-0.251318 0.07572,-0.3377 l 0.07253,-0.157057 -0.145079,-0.0144 c -0.369786,-0.03671 -1.285249,0.300519 -1.34859,0.496773 -0.03398,0.105272 0.670681,0.336612 0.826966,0.27149 0.05729,-0.02389 0.179406,-0.04922 0.271393,-0.05623 0.09198,-0.0071 0.184472,-0.01495 0.205549,-0.01753 0.02107,-0.0026 0.03976,-0.08599 0.04151,-0.185335 z"
     id="path1002-1"
     inkscape:connector-curvature="0" />
  <path
     style="fill:#000000;stroke-width:0.13229166;stroke:#000000;stroke-opacity:1;stroke-miterlimit:4;stroke-dasharray:none"
     d="m 15.114837,-34.836809 c 0.345247,-0.18009 0.380377,-0.475183 0.097,-0.814786 -1.26256,-1.513062 -2.5336,-3.492136 -2.912657,-4.535153 -0.32572,-0.896261 -0.230354,-1.215137 0.407634,-1.362935 0.502669,-0.116444 1.089093,0.272945 1.422793,0.944753 0.174029,0.350357 0.760986,0.243472 0.88412,-0.160996 0.104697,-0.343911 -0.65995,-1.273119 -1.294106,-1.572613 -0.82493,-0.389593 -2.020282,-0.0799 -2.390094,0.619221 -0.567029,1.071965 0.423349,3.252152 2.881388,6.342984 0.514619,0.647102 0.6,0.698065 0.903924,0.53953 z m -0.355059,-0.0839 c -0.125025,-0.09267 -0.02628,-0.36779 0.159722,-0.444997 0.322134,-0.133711 0.47811,0.02979 0.281483,0.295068 -0.114498,0.154476 -0.334299,0.229169 -0.441205,0.149932 z m -0.628548,-1.189324 -0.318061,0.02642 -0.315508,-0.431279 -0.315507,-0.431279 0.105045,-0.01561 c 0.05778,-0.0086 0.204708,-0.01282 0.326523,-0.0094 0.442797,0.01241 0.423882,9.24e-4 0.779242,0.472903 l 0.323415,0.429545 -0.133543,-0.03385 c -0.07344,-0.01862 -0.27667,-0.02196 -0.451605,-0.0074 z m -1.2586,-1.829543 -0.330178,0.02913 -0.260902,-0.441176 c -0.143497,-0.242647 -0.254719,-0.449519 -0.24716,-0.459718 0.02424,-0.03269 0.615363,-0.02806 0.715106,0.0056 0.06931,0.02338 0.164486,0.141903 0.34024,0.423665 0.134205,0.215155 0.257086,0.412102 0.273068,0.437659 0.0244,0.03903 0.01395,0.0408 -0.06546,0.01114 -0.05199,-0.01946 -0.243106,-0.02227 -0.424703,-0.0063 z m -1.094125,-1.868483 -0.233769,0.01063 -0.09235,-0.288185 c -0.09552,-0.298086 -0.20393,-0.95593 -0.170395,-1.033946 0.07192,-0.167288 0.74441,0.364294 0.782731,0.618724 0.01085,0.07199 0.07255,0.262084 0.137134,0.422438 0.06459,0.160356 0.118372,0.297977 0.119539,0.305824 0.0012,0.0078 -0.06791,6.91e-4 -0.1535,-0.01593 -0.08559,-0.01661 -0.260817,-0.02541 -0.389388,-0.01956 z m 2.565435,-0.743663 c -0.09766,-0.05132 -0.076,-0.140848 0.06188,-0.255827 0.136314,-0.113675 0.308807,-0.141324 0.431157,-0.06914 l 0.09427,0.05563 -0.0968,0.13059 c -0.108036,0.145759 -0.348,0.213624 -0.490526,0.138731 z m -0.323813,-0.463107 -0.163162,-0.221417 0.199338,-0.07625 c 0.109634,-0.04194 0.254423,-0.113457 0.321752,-0.158927 l 0.122417,-0.08266 0.07085,0.08741 c 0.03896,0.04808 0.116415,0.166448 0.172111,0.263045 l 0.101261,0.175631 -0.11934,-0.01582 c -0.142622,-0.0189 -0.345545,0.06106 -0.453409,0.178768 -0.04124,0.04499 -0.07807,0.07952 -0.08182,0.07672 -0.0038,-0.0028 -0.08026,-0.104716 -0.169995,-0.226497 z m -1.726419,-0.733646 c -0.0393,-0.09126 -0.128456,-0.21896 -0.19812,-0.283766 l -0.126664,-0.117826 0.128781,-0.06835 c 0.328251,-0.174185 1.303219,-0.209284 1.436248,-0.0517 0.07136,0.08453 -0.492952,0.565791 -0.662259,0.564794 -0.06206,-3.8e-4 -0.18467,0.02249 -0.272448,0.05088 -0.08779,0.02834 -0.176364,0.05612 -0.196846,0.06172 -0.02048,0.0056 -0.0694,-0.06449 -0.108689,-0.155752 z"
     id="path1002-9"
     inkscape:connector-curvature="0" />
  <path
     style="fill:#000000;stroke-width:0.13229166;stroke:#000000;stroke-opacity:1;stroke-miterlimit:4;stroke-dasharray:none"
     d="m -16.138136,-19.843301 c 0.38573,-0.05329 0.518196,-0.319308 0.365752,-0.734512 -0.679193,-1.849895 -1.209418,-4.141431 -1.215039,-5.251178 -0.0048,-0.9536 0.192365,-1.221727 0.842857,-1.146014 0.512519,0.05966 0.933535,0.623806 1.021472,1.368755 0.04586,0.388501 0.634524,0.485548 0.886691,0.146183 0.214409,-0.288556 -0.192606,-1.42101 -0.688841,-1.916591 -0.645518,-0.644668 -1.875338,-0.755667 -2.459009,-0.221944 -0.894939,0.81836 -0.696715,3.204731 0.576718,6.942855 0.266608,0.782621 0.329836,0.859362 0.669398,0.812451 z m -0.306058,-0.19858 c -0.08651,-0.129364 0.09913,-0.355152 0.300266,-0.365204 0.348347,-0.0174 0.440145,0.189073 0.165658,0.372633 -0.159836,0.106888 -0.391952,0.103187 -0.465925,-0.0074 z m -0.191259,-1.331534 -0.308376,-0.08225 -0.151819,-0.512344 -0.151818,-0.512346 0.104165,0.02068 c 0.05729,0.01137 0.197068,0.05687 0.310614,0.101118 0.412748,0.160817 0.398806,0.143634 0.574442,0.707723 l 0.159848,0.513376 -0.114342,-0.07684 c -0.06288,-0.04226 -0.253108,-0.113865 -0.422715,-0.159106 z m -0.568874,-2.146552 -0.320698,-0.08378 -0.09707,-0.503273 c -0.05339,-0.2768 -0.08844,-0.509046 -0.07789,-0.516103 0.03383,-0.02262 0.588861,0.180834 0.671439,0.246122 0.05739,0.04536 0.107084,0.189011 0.177671,0.513505 0.0539,0.247785 0.10327,0.474612 0.109711,0.504059 0.0098,0.04496 -6.08e-4,0.04312 -0.06539,-0.01155 -0.04239,-0.03583 -0.221402,-0.10285 -0.397785,-0.148927 z m -0.400894,-2.127821 -0.223693,-0.06872 0.01011,-0.302451 c 0.01046,-0.312842 0.129943,-0.968764 0.187795,-1.030927 0.124059,-0.133293 0.578223,0.593727 0.528612,0.8462 -0.01403,0.07144 -0.01996,0.271205 -0.01316,0.443944 0.0068,0.17274 0.0111,0.320436 0.0096,0.328217 -0.0015,0.0077 -0.06417,-0.02222 -0.139167,-0.06669 -0.075,-0.04446 -0.23702,-0.111771 -0.360051,-0.149561 z m 2.666018,0.163828 c -0.07466,-0.08121 -0.02412,-0.158217 0.14443,-0.220039 0.166636,-0.06112 0.338364,-0.02906 0.429253,0.08012 l 0.07003,0.08414 -0.135122,0.09036 c -0.150817,0.100856 -0.399618,0.08394 -0.508592,-0.03458 z m -0.148919,-0.545111 -0.07906,-0.263434 0.213374,-0.0047 c 0.117355,-0.0026 0.277771,-0.02114 0.356481,-0.04127 l 0.143107,-0.03661 0.03727,0.10617 c 0.02049,0.0584 0.05355,0.195932 0.07346,0.305644 l 0.03619,0.199475 -0.10704,-0.05509 c -0.127925,-0.06583 -0.345923,-0.05888 -0.487129,0.01562 -0.05399,0.02847 -0.100289,0.04858 -0.10288,0.04468 -0.0026,-0.0039 -0.0403,-0.125628 -0.08378,-0.270519 z m -1.378461,-1.272244 c -0.0063,-0.09917 -0.04721,-0.249432 -0.09097,-0.333915 l -0.07958,-0.153602 0.144276,-0.02098 c 0.367738,-0.05345 1.297566,0.241869 1.36975,0.435046 0.03872,0.103624 -0.654711,0.366709 -0.81379,0.308747 -0.05831,-0.02126 -0.181457,-0.04102 -0.273666,-0.04386 -0.0922,-0.0029 -0.184961,-0.0066 -0.206133,-0.0082 -0.02116,-0.0017 -0.04362,-0.08409 -0.04988,-0.18326 z"
     id="path1002-6"
     inkscape:connector-curvature="0" />
  <path
     style="fill:#000000;stroke-width:0.13229166;stroke:#000000;stroke-opacity:1;stroke-miterlimit:4;stroke-dasharray:none"
     d="m -8.6521784,-9.1428002 c -1.7960136,-0.32537 -2.6946246,-2.3799858 -1.7083276,-3.9059838 0.252649,-0.390899 0.7059616,-0.782163 1.1080416,-0.956374 0.09007,-0.03903 0.163763,-0.08587 0.163763,-0.104081 0,-0.01821 0.02927,-0.0609 0.06506,-0.09484 0.06166,-0.05848 0.06508,-0.07702 0.06551,-0.354995 5.05e-4,-0.326442 0.01567,-0.355686 0.202617,-0.390757 0.102263,-0.01918 0.1022,-0.01889 0.0271,-0.124178 -0.16014,-0.224509 -0.04962,-0.61672 0.214252,-0.760338 0.475091,-0.258577 1.014306,0.274118 0.748365,0.739316 -0.07987,0.139723 -0.08186,0.125928 0.02086,0.1452 0.186805,0.03504 0.202055,0.06438 0.203149,0.390757 0.0012,0.354345 0.04777,0.430209 0.339645,0.553135 1.453037,0.611969 1.970845,2.458395 1.066085,3.801502 -0.520608,0.7728388 -1.598889,1.2278008 -2.516123,1.0616318 z m 0.73876,-0.02771 c 2.240464,-0.28093 2.988846,-3.1762858 1.169818,-4.5258188 -0.292078,-0.216694 -0.668157,-0.38448 -0.668157,-0.298097 0,0.176919 -0.262616,0.30276 -0.454602,0.217836 l -0.121847,-0.0539 -0.119203,0.05273 c -0.131607,0.05822 -0.216436,0.05115 -0.337241,-0.0281 -0.07465,-0.04896 -0.07634,-0.04888 -0.152361,0.0073 -0.155366,0.114844 -0.408298,0.04567 -0.482515,-0.131947 -0.04398,-0.105249 -0.02379,-0.105923 -0.2522,0.0084 -1.5393146,0.770562 -1.8749726,2.81668 -0.661642,4.0332708 0.553888,0.555377 1.306493,0.815286 2.07995,0.718303 z m -0.67945,-4.6783558 0.08062,-0.06783 0.08062,0.06783 c 0.124551,0.104807 0.323757,0.08208 0.425772,-0.04855 0.0148,-0.01895 0.02591,-0.01718 0.03513,0.0056 0.0074,0.01832 0.0472,0.05074 0.08841,0.07206 0.28884,0.149366 0.569468,-0.154187 0.352198,-0.380969 -0.06135,-0.06404 -0.06504,-0.08455 -0.06504,-0.361878 v -0.293989 l -0.07206,-0.02785 c -0.03964,-0.01532 -0.110378,-0.03426 -0.157214,-0.04208 -0.102147,-0.01707 -0.10241,-0.0186 -0.02034,-0.116142 0.224948,-0.267337 0.07806,-0.710862 -0.267168,-0.806735 -0.474037,-0.131641 -0.853906,0.438104 -0.540463,0.81061 0.03744,0.04449 0.06366,0.08385 0.05827,0.08745 -0.0054,0.0036 -0.0683,0.02141 -0.139796,0.03957 -0.196477,0.04991 -0.197542,0.05194 -0.197542,0.376872 0,0.268741 -0.0043,0.292934 -0.06551,0.365633 -0.202377,0.240511 0.15878,0.526863 0.404124,0.320419 z m 0.165937,-1.179077 c -0.176706,-0.0902 -0.248303,-0.354372 -0.140401,-0.518037 0.217086,-0.329273 0.710257,-0.162895 0.676052,0.228076 -0.0223,0.254981 -0.304703,0.407848 -0.535651,0.289961 z m 0.360117,-0.06035 c 0.326252,-0.226768 0.04252,-0.719482 -0.321572,-0.558428 -0.261007,0.115458 -0.265783,0.466963 -0.008,0.584861 0.119058,0.05444 0.225441,0.0459 0.329516,-0.02643 z"
     id="path1006-2"
     inkscape:connector-curvature="0" />
  <path
     style="fill:#000000;fill-opacity:1;stroke:#000000;stroke-width:0.13229166;stroke-opacity:1;stroke-miterlimit:4;stroke-dasharray:none"
     d="m -9.4660852,-35.82604 c -0.05635,-0.177556 -0.7074018,-0.688996 -1.1992828,-0.942114 -1.745305,-0.89812 -1.678166,-2.924058 0.126067,-3.804051 0.5753308,-0.280612 0.6468338,-0.359437 0.6981378,-0.769639 l 0.03229,-0.258174 0.111233,-0.0081 c 0.06118,-0.0045 0.111232,-0.01239 0.111232,-0.01762 0,-0.0052 -0.02378,-0.06497 -0.05284,-0.132776 -0.141864,-0.330958 -0.06105,-0.643402 0.167092,-0.645969 0.21003,-0.0024 0.311095,0.383463 0.177519,0.677691 l -0.05033,0.110847 0.123425,0.008 0.123423,0.008 0.02965,0.241925 c 0.04489,0.366211 0.12886,0.456038 0.671523,0.718314 1.2936898,0.625256 1.8216508,1.641085 1.4001058,2.693885 -0.2050578,0.512126 -0.5555338,0.87052 -1.1769668,1.203549 -0.728947,0.390649 -1.201374,0.733436 -1.201374,0.871703 0,0.06494 -0.07307,0.100795 -0.09091,0.0446 z m 0.196524,-0.251007 c 0.151052,-0.165673 0.380861,-0.320069 0.910932,-0.612008 0.563298,-0.310238 0.685056,-0.395784 0.909171,-0.638771 0.209553,-0.227198 0.4770298,-0.668979 0.4770298,-0.787888 0,-0.0029 -0.04235,0.0347 -0.0941,0.08352 -0.7684268,0.724718 -3.9452936,0.688035 -4.6660666,-0.05388 l -0.100437,-0.103383 0.06351,0.174966 c 0.184095,0.507175 0.675199,1.023141 1.178405,1.238061 0.350658,0.149767 1.1314008,0.76865 1.1382848,0.902299 8.44e-4,0.01658 0.01571,0.007 0.03301,-0.02122 0.0173,-0.02826 0.08492,-0.110017 0.150269,-0.181691 z m 0.287062,-1.704463 c -0.01993,-0.02731 -0.12961,-0.162368 -0.243746,-0.300131 l -0.207522,-0.250477 -0.258284,0.280328 c -0.3089748,0.335345 -0.3268008,0.315595 0.28709,0.318078 0.444378,0.0018 0.457556,3.18e-4 0.422462,-0.0478 z m 0.868105,-0.05996 c 0.163375,-0.03 0.297043,-0.05872 0.297043,-0.06382 0,-0.01964 -0.481947,-0.460052 -0.501673,-0.458436 -0.0073,5.82e-4 -0.09942,0.138446 -0.204801,0.306335 l -0.191598,0.305254 0.151992,-0.0174 c 0.0836,-0.0096 0.285664,-0.04194 0.449037,-0.07194 z m -2.2015038,-0.233893 -0.199623,-0.317099 -0.08332,0.07004 c -0.04583,0.03852 -0.157592,0.138065 -0.248364,0.221201 l -0.165042,0.151157 0.165042,0.04649 c 0.09077,0.02557 0.289797,0.06761 0.44228,0.09343 0.152482,0.02582 0.279808,0.04805 0.282946,0.04941 0.0031,0.0014 -0.08413,-0.140228 -0.193918,-0.314632 z m -0.854831,0.05966 c -0.05614,-0.163075 -0.114686,-0.30239 -0.17038,-0.476614 -0.02379,-0.108332 -0.02863,-0.10742 -0.193034,0.0364 -0.159852,0.139834 -0.167328,0.171622 -0.05858,0.249059 0.164545,0.117168 0.422185,0.233875 0.42199,0.191158 z m 2.4868988,-0.178226 c 0.07845,-0.130699 0.165479,-0.272134 0.193402,-0.3143 l 0.05077,-0.07667 -0.157515,0.01696 c -0.08663,0.0093 -0.285182,0.01844 -0.441216,0.02025 l -0.283698,0.0033 0.09887,0.122959 c 0.318784,0.396444 0.385852,0.477325 0.391021,0.471543 0.0032,-0.0035 0.06992,-0.113349 0.148363,-0.244048 z m 1.35405,0.114391 c 0.2817798,-0.142705 0.2769538,-0.126747 0.08959,-0.296303 -0.188354,-0.17045 -0.175032,-0.175325 -0.28062,0.1027 -0.04412,0.116177 -0.08926,0.233802 -0.100307,0.26139 -0.02662,0.06647 0.07116,0.04372 0.291338,-0.06779 z m -0.329673,-0.411661 c 0.09863,-0.272592 0.116466,-0.255735 -0.199803,-0.188879 -0.143956,0.03043 -0.290717,0.06097 -0.326136,0.06787 -0.05931,0.01154 -0.04681,0.02893 0.158423,0.220169 0.258823,0.241182 0.242804,0.245504 0.367516,-0.09915 z m -2.115093,0.227212 c 0.243765,-0.294679 0.244796,-0.285978 -0.03409,-0.28775 -0.117388,-7.41e-4 -0.2966028,-0.01094 -0.3982588,-0.02264 -0.101654,-0.01171 -0.187664,-0.01915 -0.191132,-0.01655 -0.0035,0.0026 0.06025,0.110825 0.141597,0.240476 0.08135,0.129652 0.165142,0.263202 0.186214,0.296778 0.05187,0.08264 0.05543,0.08011 0.2956728,-0.210317 z m -0.8246928,-0.330847 c -0.0025,-0.0027 -0.129165,-0.0299 -0.281402,-0.06051 -0.152238,-0.03062 -0.297625,-0.06192 -0.323085,-0.06957 -0.04705,-0.01413 -0.005,0.135445 0.126885,0.451011 l 0.04003,0.0958 0.22109,-0.205945 c 0.1216,-0.113269 0.219017,-0.208125 0.216482,-0.210791 z m -0.949393,-0.264679 c -0.08617,-0.04659 -0.180401,-0.105994 -0.209409,-0.132019 -0.05894,-0.05289 -0.05868,-0.04388 0.01039,0.355474 l 0.02856,0.16516 0.163561,-0.151958 0.163562,-0.151957 z m 4.5206356,0.106046 c 0.04172,-0.271611 0.04039,-0.290254 -0.01704,-0.23968 -0.02541,0.02238 -0.111556,0.07318 -0.1914278,0.112884 -0.07987,0.03971 -0.14869,0.07523 -0.152928,0.07893 -0.0042,0.0037 0.06106,0.07281 0.145104,0.15358 0.1734738,0.166703 0.1745308,0.166186 0.2162928,-0.105711 z m -1.7698638,-0.03483 c 0.899238,-0.0614 1.5317,-0.219127 1.7051378,-0.425245 l 0.06687,-0.07947 -0.05621,-0.110558 c -0.2714888,-0.533938 -0.6614798,-0.877038 -1.3962158,-1.228341 -0.262803,-0.125655 -0.356565,-0.185659 -0.455676,-0.291617 -0.180422,-0.192887 -0.315914,-0.247237 -0.44292,-0.177669 l -0.09602,0.05259 -0.07366,-0.05366 -0.07366,-0.05366 -0.108509,0.05518 c -0.05968,0.03035 -0.119116,0.07301 -0.132081,0.09479 -0.08069,0.135578 -0.2991268,0.298816 -0.5795958,0.433132 -0.655423,0.313882 -1.170528,0.799067 -1.295979,1.220703 -0.07164,0.240772 0.728769,0.508195 1.661513,0.555124 0.1742648,0.0088 0.3217968,0.02031 0.3278468,0.02566 0.02108,0.01861 0.572513,0.0087 0.94917,-0.01697 z m -0.895114,-2.374432 c 0.06387,-0.04908 0.06636,-0.04907 0.136096,5.8e-4 0.08648,0.06158 0.112345,0.06264 0.195672,0.008 0.05952,-0.039 0.07367,-0.03904 0.17013,-4.4e-4 l 0.105211,0.04209 -0.01308,-0.111777 c -0.0072,-0.06148 -0.01785,-0.147422 -0.02367,-0.190988 -0.0058,-0.04357 -0.01156,-0.09406 -0.01275,-0.112217 -0.0016,-0.02443 -0.08366,-0.033 -0.315808,-0.033 h -0.313635 l -0.02961,0.199109 c -0.04237,0.284883 -0.03349,0.302282 0.101454,0.198588 z m 0.291004,-0.63302 c 0.04953,-0.293626 -0.01285,-0.512397 -0.120592,-0.422976 -0.07452,0.06185 -0.01604,0.605493 0.06513,0.605493 0.01357,0 0.03852,-0.08213 0.05546,-0.182517 z"
     id="path1004-0-1"
     inkscape:connector-curvature="0"
     sodipodi:nodetypes="csscccscccccccsssscccsssccccccsccscscccscccccccccsccccccccscccccccccccccccccccccccsccccccccscsccccccccccccccccccsccccccccssccccccccsccsccccccsc" />
  <path
     inkscape:connector-curvature="0"
     d="m 0.444161,-4.063704 h 9.080841 v 2.539769 h 8.254899 v -2.539769 h 8.5724 v 8.508399 h 11.7477 l -14.1767,-23.494689 h 6.35 l -14.1762,-19.050001 h 6.35 L 8.270811,-57.149996 H 14.6208 l -14.176639,-19.05 h -0.88832 l -14.17664,19.05 h 6.34999 l -14.17629,19.050001 h 6.35 l -14.1762,19.050001 h 6.35 l -14.1767,23.494689 h 11.7477 v -8.508399 h 8.5724 v 2.539769 H -9.525 v -2.539769 h 9.080841 v -34.036291 h 0.88832 z"
     id="path4-5"
     style="fill:none;stroke:#0000ff;stroke-width:0.5;stroke-opacity:1" />
  <path
     inkscape:connector-curvature="0"
     d="m 9.525002,-1.5239352 h 8.254899 v -2.5397697 h 8.5724 V 3.9e-6 H 12.700002 v 4.4446903 h 25.399999 l -14.1767,-23.4946892 h 6.35 l -14.1762,-19.05 h 6.35 L 8.270811,-57.149996 H 14.6208 l -14.176639,-19.05 v 38.100001 h -0.88832 v -38.100001 l -14.17664,19.05 h 6.34999 l -14.17629,19.050001 h 6.35 l -14.176203,19.05 h 6.350003 L -38.100002,4.4446942 h 25.400003 V 3.9e-6 h -13.6523 v -4.0637088 h 8.5724 v 2.5397697 H -9.525 V -4.0637049 H 9.525002 Z"
     id="path4-2"
     style="fill:none;stroke:#ff0000;stroke-width:0.5;stroke-opacity:1" />
</svg>
